PathFileType	4	(X/Y/Z)	Gait_norma_markers.trc
DataRate	CameraRate	NumFrames	NumMarkers	Units	OrigDataRate	OrigDataStartFrame	OrigNumFrames
100	100	10	38	m	100	1	86
Frame#	Time	RASI			RPSI			LPSI			LASI			RTROCH			RTHI			RTHI2			RTHI3			RTHI4			RKNE			RKNEM			RTIB			RTIB2			RTIB3			RTIB4			RANK			RANKM			RHEE			RTOE			RTOEL			RTOEM			LTROCH			LTHI			LTHI2			LTHI3			LTHI4			LKNE			LKNEM			LTIB			LTIB2			LTIB3			LTIB4			LANK			LANKM			LHEE			LTOE			LTOEL			LTOEM
		X1	Y1	Z1	X2	Y2	Z2	X3	Y3	Z3	X4	Y4	Z4	X5	Y5	Z5	X6	Y6	Z6	X7	Y7	Z7	X8	Y8	Z8	X9	Y9	Z9	X10	Y10	Z10	X11	Y11	Z11	X12	Y12	Z12	X13	Y13	Z13	X14	Y14	Z14	X15	Y15	Z15	X16	Y16	Z16	X17	Y17	Z17	X18	Y18	Z18	X19	Y19	Z19	X20	Y20	Z20	X21	Y21	Z21	X22	Y22	Z22	X23	Y23	Z23	X24	Y24	Z24	X25	Y25	Z25	X26	Y26	Z26	X27	Y27	Z27	X28	Y28	Z28	X29	Y29	Z29	X30	Y30	Z30	X31	Y31	Z31	X32	Y32	Z32	X33	Y33	Z33	X34	Y34	Z34	X35	Y35	Z35	X36	Y36	Z36	X37	Y37	Z37	X38	Y38	Z38

1	0.000000	-0.335672	0.957562	-0.903525	-0.273067	1.002894	-1.087017	-0.176458	0.993317	-1.084007	-0.110169	0.972562	-0.897418	-0.391292	0.883520	-0.978709	-0.396393	0.773333	-1.006831	-0.381696	0.767907	-0.942600	-0.367225	0.686307	-0.946009	-0.382088	0.686837	-1.009172	-0.342138	0.535828	-1.034279	-0.230741	0.546513	-1.035700	-0.356975	0.407237	-1.091423	-0.330448	0.398219	-1.032323	-0.323111	0.311546	-1.048761	-0.351594	0.326845	-1.107917	-0.285238	0.112287	-1.149641	-0.218528	0.116334	-1.111351	-0.236349	0.060640	-1.205830	-0.302015	0.055917	-0.975791	-0.350033	0.040880	-1.039281	-0.244364	0.034326	-0.985336	-0.051980	0.903168	-0.968438	-0.037364	0.715616	-0.860847	-0.054681	0.734869	-0.803805	-0.062926	0.655983	-0.778960	-0.048236	0.629423	-0.836274	-0.065102	0.557346	-0.784563	-0.171738	0.572089	-0.776766	-0.044574	0.334220	-0.808534	-0.061440	0.341704	-0.746825	-0.069318	0.254044	-0.749876	-0.053798	0.251758	-0.810087	-0.074456	0.115294	-0.800203	-0.146367	0.141377	-0.762563	-0.127920	0.068240	-0.849480	-0.076910	0.081604	-0.619290	-0.030413	0.061233	-0.670307	-0.130102	0.070615	-0.632598
2	0.010000	-0.336414	0.955654	-0.892538	-0.272336	1.001519	-1.075338	-0.175807	0.991611	-1.071460	-0.110766	0.970115	-0.884495	-0.391824	0.882378	-0.968705	-0.397306	0.772959	-0.998529	-0.382478	0.766375	-0.934028	-0.367946	0.684822	-0.938258	-0.382620	0.686138	-1.001518	-0.342518	0.535319	-1.028447	-0.229745	0.546065	-1.029733	-0.357117	0.407511	-1.087326	-0.330312	0.397502	-1.028921	-0.323366	0.311250	-1.045830	-0.351635	0.327336	-1.104872	-0.285035	0.113130	-1.149032	-0.218396	0.116821	-1.110417	-0.236126	0.060980	-1.205381	-0.302117	0.055614	-0.975615	-0.349996	0.040881	-1.039219	-0.243002	0.033914	-0.985312	-0.053021	0.900631	-0.956193	-0.038320	0.712001	-0.851071	-0.056603	0.730053	-0.793805	-0.064906	0.650740	-0.770360	-0.048368	0.626516	-0.827591	-0.067268	0.552013	-0.777221	-0.173882	0.566475	-0.770662	-0.046276	0.328535	-0.788537	-0.062731	0.340314	-0.727361	-0.070384	0.252630	-0.724224	-0.055188	0.246150	-0.784394	-0.075413	0.110451	-0.764454	-0.147335	0.138737	-0.727599	-0.128935	0.059145	-0.809419	-0.077970	0.088350	-0.581347	-0.031413	0.064686	-0.630978	-0.131130	0.076475	-0.594013
3	0.020000	-0.337086	0.953773	-0.881391	-0.271508	1.000224	-1.063732	-0.174987	0.989790	-1.058697	-0.111380	0.967357	-0.871293	-0.392763	0.881338	-0.958668	-0.398107	0.772827	-0.990773	-0.383458	0.764956	-0.925355	-0.368765	0.683406	-0.930477	-0.382702	0.685868	-0.994198	-0.342924	0.534924	-1.022533	-0.229950	0.545649	-1.022884	-0.357120	0.407844	-1.083197	-0.330751	0.397187	-1.024944	-0.323623	0.311159	-1.042741	-0.351641	0.327911	-1.101760	-0.284792	0.114168	-1.148309	-0.218283	0.117397	-1.109434	-0.235731	0.061361	-1.204822	-0.301935	0.055880	-0.975895	-0.349922	0.041395	-1.039633	-0.244602	0.034121	-0.985058	-0.051892	0.898350	-0.942920	-0.040818	0.705387	-0.842115	-0.058540	0.724665	-0.784185	-0.066707	0.644925	-0.762361	-0.050333	0.620914	-0.820137	-0.068743	0.545543	-0.770341	-0.176233	0.560247	-0.765327	-0.048058	0.323615	-0.769275	-0.064406	0.339540	-0.708743	-0.071595	0.252352	-0.699382	-0.056597	0.241572	-0.759038	-0.076726	0.107406	-0.729256	-0.148554	0.138084	-0.693939	-0.130477	0.054832	-0.771902	-0.079210	0.096845	-0.544871	-0.032735	0.070045	-0.592949	-0.132406	0.084289	-0.556697
4	0.030000	-0.337692	0.951984	-0.870078	-0.270315	0.998577	-1.051703	-0.173992	0.987763	-1.045676	-0.111910	0.964480	-0.857791	-0.392812	0.879995	-0.948263	-0.398539	0.772166	-0.982093	-0.384430	0.763524	-0.916651	-0.368509	0.682408	-0.921708	-0.383239	0.685251	-0.986404	-0.343299	0.534500	-1.016444	-0.229010	0.544690	-1.015063	-0.357189	0.408300	-1.078986	-0.331099	0.396789	-1.020778	-0.323994	0.311062	-1.039924	-0.351669	0.328627	-1.098641	-0.284674	0.115185	-1.147624	-0.218530	0.117712	-1.108131	-0.235434	0.062235	-1.204384	-0.302103	0.055594	-0.975755	-0.349893	0.041393	-1.039594	-0.243985	0.033952	-0.984956	-0.052205	0.895547	-0.929895	-0.042244	0.700641	-0.832839	-0.060402	0.718781	-0.775019	-0.068389	0.638586	-0.754832	-0.051221	0.615794	-0.812827	-0.070586	0.539727	-0.764031	-0.178943	0.553757	-0.760498	-0.049747	0.319347	-0.750463	-0.066090	0.339430	-0.691002	-0.072959	0.253196	-0.675589	-0.058119	0.238316	-0.734557	-0.078424	0.106451	-0.695131	-0.149736	0.139447	-0.661410	-0.132013	0.051274	-0.733200	-0.080736	0.106913	-0.510064	-0.033992	0.077396	-0.556402	-0.133973	0.093934	-0.521072
5	0.040000	-0.338362	0.949988	-0.858710	-0.268887	0.996727	-1.039484	-0.172782	0.985598	-1.032568	-0.112561	0.961464	-0.844285	-0.393108	0.878741	-0.937828	-0.399203	0.771760	-0.973419	-0.385523	0.762198	-0.907885	-0.371697	0.681411	-0.915769	-0.383686	0.684706	-0.978538	-0.343770	0.534203	-1.010221	-0.229217	0.544314	-1.007569	-0.357167	0.408520	-1.074784	-0.331993	0.396740	-1.017053	-0.324493	0.311018	-1.036921	-0.351742	0.329512	-1.095558	-0.284040	0.116309	-1.146700	-0.218456	0.119092	-1.107247	-0.235363	0.063552	-1.203933	-0.302398	0.055334	-0.975665	-0.349934	0.041370	-1.039533	-0.244813	0.034132	-0.984795	-0.052416	0.892511	-0.916489	-0.043127	0.695994	-0.823852	-0.062453	0.712472	-0.766117	-0.069802	0.631888	-0.747724	-0.051461	0.610443	-0.805785	-0.072107	0.534222	-0.757792	-0.182739	0.546730	-0.757626	-0.051254	0.316129	-0.732732	-0.067543	0.340066	-0.674713	-0.074238	0.255128	-0.653181	-0.059660	0.236757	-0.711682	-0.079807	0.107873	-0.662864	-0.150669	0.142697	-0.630352	-0.134695	0.050303	-0.697041	-0.082161	0.118163	-0.477365	-0.036058	0.085278	-0.521962	-0.135726	0.105267	-0.487603
6	0.050000	-0.338914	0.948139	-0.847050	-0.267461	0.994991	-1.027426	-0.171239	0.983247	-1.019361	-0.112953	0.958376	-0.830671	-0.393385	0.877594	-0.927316	-0.399149	0.771117	-0.964377	-0.386511	0.761020	-0.898807	-0.372855	0.680071	-0.907547	-0.384161	0.684266	-0.970422	-0.344180	0.533905	-1.003663	-0.229666	0.543760	-0.999666	-0.357280	0.409253	-1.070260	-0.332770	0.396680	-1.012794	-0.325259	0.311207	-1.033831	-0.351878	0.330625	-1.092234	-0.284314	0.117758	-1.145840	-0.218774	0.120112	-1.106116	-0.235562	0.065451	-1.203426	-0.302644	0.054878	-0.975623	-0.350016	0.041296	-1.039481	-0.245552	0.033750	-0.984165	-0.052584	0.889259	-0.902745	-0.043215	0.691198	-0.814734	-0.063811	0.706484	-0.757805	-0.071063	0.625045	-0.740946	-0.050654	0.605141	-0.798697	-0.074074	0.529043	-0.751352	-0.185400	0.541429	-0.752385	-0.052947	0.313610	-0.715889	-0.068740	0.341126	-0.659418	-0.075404	0.257635	-0.632411	-0.061203	0.235298	-0.689552	-0.081616	0.109357	-0.632311	-0.151565	0.147406	-0.601342	-0.138022	0.052059	-0.663759	-0.083502	0.129774	-0.447151	-0.038208	0.093077	-0.489742	-0.137359	0.117967	-0.456785
7	0.060000	-0.339313	0.946386	-0.835314	-0.265804	0.993067	-1.015236	-0.169801	0.980889	-1.006502	-0.113554	0.955327	-0.817094	-0.393527	0.876452	-0.916660	-0.399613	0.771000	-0.955322	-0.387305	0.760232	-0.889783	-0.374176	0.679296	-0.899489	-0.384513	0.683882	-0.962078	-0.344593	0.533759	-0.996782	-0.232172	0.542774	-0.990874	-0.357518	0.410026	-1.065266	-0.333284	0.396508	-1.007864	-0.326149	0.311691	-1.030800	-0.352207	0.331800	-1.088512	-0.284711	0.119379	-1.144891	-0.219191	0.121416	-1.104941	-0.235853	0.067508	-1.202897	-0.302811	0.054476	-0.975492	-0.350157	0.041268	-1.039409	-0.245734	0.033793	-0.984078	-0.052601	0.885837	-0.888672	-0.042550	0.686498	-0.805376	-0.065667	0.700468	-0.749236	-0.071396	0.618560	-0.733748	-0.048289	0.600069	-0.790879	-0.074927	0.525018	-0.743601	-0.188174	0.536745	-0.746828	-0.055392	0.311335	-0.700165	-0.069414	0.342277	-0.645044	-0.076473	0.260308	-0.613108	-0.063079	0.234848	-0.669699	-0.083618	0.111484	-0.604122	-0.152517	0.152748	-0.574994	-0.141177	0.053970	-0.632304	-0.084734	0.141723	-0.419743	-0.040233	0.101837	-0.459752	-0.138913	0.131115	-0.429064
8	0.070000	-0.339690	0.944469	-0.823492	-0.263937	0.990967	-1.002804	-0.168422	0.979048	-0.993950	-0.113941	0.952295	-0.803564	-0.393686	0.875360	-0.905783	-0.399224	0.770340	-0.945491	-0.389280	0.759826	-0.881828	-0.375120	0.677825	-0.890406	-0.384895	0.683542	-0.953372	-0.345325	0.533753	-0.989713	-0.229684	0.542879	-0.983549	-0.358064	0.411159	-1.059758	-0.333955	0.396432	-1.002605	-0.326606	0.311687	-1.026372	-0.352586	0.332824	-1.084127	-0.285241	0.121194	-1.143781	-0.219749	0.122883	-1.103682	-0.236249	0.070225	-1.202617	-0.302939	0.054085	-0.975320	-0.350289	0.041200	-1.039290	-0.245975	0.033851	-0.983943	-0.052273	0.882372	-0.874248	-0.041713	0.682362	-0.795686	-0.067301	0.694828	-0.739790	-0.070767	0.613278	-0.725223	-0.045289	0.595750	-0.781379	-0.074648	0.520775	-0.734446	-0.190087	0.533648	-0.739393	-0.057021	0.310305	-0.686735	-0.069924	0.342963	-0.631856	-0.076780	0.262562	-0.595916	-0.065425	0.232796	-0.650299	-0.086370	0.112827	-0.578436	-0.153724	0.157674	-0.551531	-0.144707	0.055421	-0.603525	-0.086538	0.153040	-0.395878	-0.043039	0.109494	-0.433651	-0.140857	0.143377	-0.404960
9	0.080000	-0.340010	0.942588	-0.811632	-0.262215	0.989041	-0.990573	-0.166622	0.976650	-0.980906	-0.114493	0.949374	-0.790326	-0.393699	0.874202	-0.894694	-0.399532	0.770224	-0.935652	-0.389918	0.758759	-0.871944	-0.376115	0.677155	-0.881630	-0.385126	0.683141	-0.944203	-0.345760	0.533487	-0.981870	-0.230664	0.542157	-0.974647	-0.358344	0.411622	-1.053551	-0.334314	0.396191	-0.996687	-0.327214	0.312004	-1.021963	-0.352981	0.333958	-1.079695	-0.286100	0.123095	-1.142501	-0.220427	0.124491	-1.102252	-0.237009	0.072473	-1.201651	-0.303033	0.053669	-0.975038	-0.350481	0.041107	-1.039192	-0.246035	0.034067	-0.983803	-0.051941	0.879049	-0.859805	-0.041131	0.678687	-0.785145	-0.066870	0.691467	-0.729456	-0.071854	0.609881	-0.715028	-0.046085	0.592207	-0.771195	-0.074058	0.519260	-0.725052	-0.191083	0.531864	-0.729482	-0.058986	0.308566	-0.673348	-0.070527	0.342759	-0.619062	-0.078289	0.263766	-0.580488	-0.067682	0.233022	-0.634926	-0.089270	0.113964	-0.556946	-0.155148	0.161256	-0.531156	-0.149808	0.058474	-0.580048	-0.088657	0.161996	-0.375972	-0.045736	0.116085	-0.411247	-0.142443	0.154023	-0.384674
10	0.090000	-0.340233	0.941062	-0.799553	-0.260598	0.987262	-0.978817	-0.164977	0.974405	-0.968126	-0.114753	0.946798	-0.777260	-0.394418	0.873151	-0.884210	-0.399194	0.769468	-0.924951	-0.390339	0.757483	-0.861404	-0.376767	0.675781	-0.871716	-0.385433	0.682658	-0.934467	-0.345911	0.533094	-0.973299	-0.230576	0.541744	-0.965550	-0.358844	0.412398	-1.047021	-0.334775	0.396014	-0.990400	-0.327838	0.312247	-1.017204	-0.353659	0.335053	-1.074358	-0.287460	0.125280	-1.141255	-0.221237	0.126202	-1.100711	-0.237789	0.075315	-1.200843	-0.303112	0.053232	-0.974819	-0.350672	0.041000	-1.038984	-0.246050	0.034437	-0.983522	-0.051617	0.876197	-0.845705	-0.041612	0.676255	-0.773278	-0.066474	0.690117	-0.717358	-0.074093	0.608872	-0.702504	-0.049870	0.590024	-0.759048	-0.076889	0.515817	-0.713659	-0.191635	0.530452	-0.715949	-0.061430	0.305965	-0.659473	-0.071386	0.341815	-0.605921	-0.079261	0.263471	-0.565974	-0.070890	0.232163	-0.620810	-0.091955	0.113343	-0.538862	-0.156631	0.162761	-0.514128	-0.153893	0.058142	-0.559575	-0.089576	0.167729	-0.359450	-0.048152	0.118812	-0.392676	-0.143907	0.161041	-0.368013
